name p9_grf_mean_speed_1.6
datacolumns 13
datarows 63
range 0.0000000000 0.6200000000
endheader
time	grf_x_l_mean	grf_x_l_var	grf_y_l_mean	grf_y_l_var	grf_z_l_mean	grf_z_l_var	grf_x_r_mean	grf_x_r_var	grf_y_r_mean	grf_y_r_var	grf_z_r_mean	grf_z_r_var
0.0000000000	153.3743406079	1.0000000000	795.6984780307	1.0000000000	0.0000000000	0.0000000000	10.4627291087	1.0000000000	11.4946306321	1.0000000000	0.0000000000	0.0000000000
0.0100000000	164.1041665269	1.0000000000	770.0396266599	1.0000000000	0.0000000000	0.0000000000	15.8389171331	1.0000000000	54.9214416562	1.0000000000	0.0000000000	0.0000000000
0.0200000000	173.2229003351	1.0000000000	732.0692198572	1.0000000000	0.0000000000	0.0000000000	19.2315266452	1.0000000000	126.5809929915	1.0000000000	0.0000000000	0.0000000000
0.0300000000	179.3116829364	1.0000000000	680.8003435474	1.0000000000	0.0000000000	0.0000000000	14.0836921291	1.0000000000	226.7123073924	1.0000000000	0.0000000000	0.0000000000
0.0400000000	179.6668219482	1.0000000000	616.0844791433	1.0000000000	0.0000000000	0.0000000000	-6.3068725519	1.0000000000	348.3426079459	1.0000000000	0.0000000000	0.0000000000
0.0500000000	172.3331197499	1.0000000000	539.3897989291	1.0000000000	0.0000000000	0.0000000000	-40.1917842206	1.0000000000	479.9620832018	1.0000000000	0.0000000000	0.0000000000
0.0600000000	157.7318994056	1.0000000000	454.3412173643	1.0000000000	0.0000000000	0.0000000000	-78.4238123370	1.0000000000	607.8499504252	1.0000000000	0.0000000000	0.0000000000
0.0700000000	136.6676541131	1.0000000000	365.6962637470	1.0000000000	0.0000000000	0.0000000000	-113.7665370723	1.0000000000	717.8022313640	1.0000000000	0.0000000000	0.0000000000
0.0800000000	110.2071267632	1.0000000000	278.4615711932	1.0000000000	0.0000000000	0.0000000000	-142.7167494559	1.0000000000	801.0673736212	1.0000000000	0.0000000000	0.0000000000
0.0900000000	81.6590268705	1.0000000000	198.3804176508	1.0000000000	0.0000000000	0.0000000000	-161.8025346712	1.0000000000	856.6364833543	1.0000000000	0.0000000000	0.0000000000
0.1000000000	55.5848380027	1.0000000000	130.6029767919	1.0000000000	0.0000000000	0.0000000000	-170.0840369124	1.0000000000	888.3993619258	1.0000000000	0.0000000000	0.0000000000
0.1100000000	33.5994005679	1.0000000000	77.3694681123	1.0000000000	0.0000000000	0.0000000000	-169.2715239206	1.0000000000	901.6428787885	1.0000000000	0.0000000000	0.0000000000
0.1200000000	17.2505710309	1.0000000000	38.2193867975	1.0000000000	0.0000000000	0.0000000000	-162.2750659460	1.0000000000	901.5039777988	1.0000000000	0.0000000000	0.0000000000
0.1300000000	7.0642777679	1.0000000000	12.3851074713	1.0000000000	0.0000000000	0.0000000000	-150.5642834692	1.0000000000	892.7306572618	1.0000000000	0.0000000000	0.0000000000
0.1400000000	0.0000000000	1.0000000000	0.0000000000	1.0000000000	0.0000000000	0.0000000000	-136.4233576522	1.0000000000	878.5000834465	1.0000000000	0.0000000000	0.0000000000
0.1500000000	0.0000000000	1.0000000000	0.0000000000	1.0000000000	0.0000000000	0.0000000000	-121.7628958379	1.0000000000	858.9157196707	1.0000000000	0.0000000000	0.0000000000
0.1600000000	0.0000000000	1.0000000000	0.0000000000	1.0000000000	0.0000000000	0.0000000000	-106.5254490167	1.0000000000	832.5513536285	1.0000000000	0.0000000000	0.0000000000
0.1700000000	0.0000000000	1.0000000000	0.0000000000	1.0000000000	0.0000000000	0.0000000000	-91.3756520989	1.0000000000	799.4852208776	1.0000000000	0.0000000000	0.0000000000
0.1800000000	0.0000000000	1.0000000000	0.0000000000	1.0000000000	0.0000000000	0.0000000000	-77.4437424480	1.0000000000	761.4889755567	1.0000000000	0.0000000000	0.0000000000
0.1900000000	0.0000000000	1.0000000000	0.0000000000	1.0000000000	0.0000000000	0.0000000000	-64.7872965706	1.0000000000	720.0789970129	1.0000000000	0.0000000000	0.0000000000
0.2000000000	0.0000000000	1.0000000000	0.0000000000	1.0000000000	0.0000000000	0.0000000000	-52.8768926414	1.0000000000	676.5992738812	1.0000000000	0.0000000000	0.0000000000
0.2100000000	0.0000000000	1.0000000000	0.0000000000	1.0000000000	0.0000000000	0.0000000000	-42.6510370828	1.0000000000	633.3568339543	1.0000000000	0.0000000000	0.0000000000
0.2200000000	0.0000000000	1.0000000000	0.0000000000	1.0000000000	0.0000000000	0.0000000000	-34.3168884524	1.0000000000	592.8341592663	1.0000000000	0.0000000000	0.0000000000
0.2300000000	0.0000000000	1.0000000000	0.0000000000	1.0000000000	0.0000000000	0.0000000000	-27.2294891187	1.0000000000	557.0046103223	1.0000000000	0.0000000000	0.0000000000
0.2400000000	0.0000000000	1.0000000000	0.0000000000	1.0000000000	0.0000000000	0.0000000000	-21.3972443149	1.0000000000	527.0804456890	1.0000000000	0.0000000000	0.0000000000
0.2500000000	0.0000000000	1.0000000000	0.0000000000	1.0000000000	0.0000000000	0.0000000000	-17.0025954445	1.0000000000	503.5141251467	1.0000000000	0.0000000000	0.0000000000
0.2600000000	0.0000000000	1.0000000000	0.0000000000	1.0000000000	0.0000000000	0.0000000000	-13.3356605164	1.0000000000	486.5500321220	1.0000000000	0.0000000000	0.0000000000
0.2700000000	0.0000000000	1.0000000000	0.0000000000	1.0000000000	0.0000000000	0.0000000000	-9.9629177559	1.0000000000	476.4580238203	1.0000000000	0.0000000000	0.0000000000
0.2800000000	0.0000000000	1.0000000000	0.0000000000	1.0000000000	0.0000000000	0.0000000000	-7.0246914130	1.0000000000	473.0925622797	1.0000000000	0.0000000000	0.0000000000
0.2900000000	0.0000000000	1.0000000000	0.0000000000	1.0000000000	0.0000000000	0.0000000000	-4.0369243689	1.0000000000	475.4868464693	1.0000000000	0.0000000000	0.0000000000
0.3000000000	0.0000000000	1.0000000000	0.0000000000	1.0000000000	0.0000000000	0.0000000000	-0.6906675172	1.0000000000	482.4334155001	1.0000000000	0.0000000000	0.0000000000
0.3100000000	0.0000000000	1.0000000000	0.0000000000	1.0000000000	0.0000000000	0.0000000000	3.0196450377	1.0000000000	493.1007553555	1.0000000000	0.0000000000	0.0000000000
0.3200000000	0.0000000000	1.0000000000	0.0000000000	1.0000000000	0.0000000000	0.0000000000	7.1534374678	1.0000000000	507.0530889873	1.0000000000	0.0000000000	0.0000000000
0.3300000000	0.0000000000	1.0000000000	0.0000000000	1.0000000000	0.0000000000	0.0000000000	11.9868902541	1.0000000000	523.9708004005	1.0000000000	0.0000000000	0.0000000000
0.3400000000	0.0000000000	1.0000000000	0.0000000000	1.0000000000	0.0000000000	0.0000000000	17.2380462348	1.0000000000	543.2347193353	1.0000000000	0.0000000000	0.0000000000
0.3500000000	0.0000000000	1.0000000000	0.0000000000	1.0000000000	0.0000000000	0.0000000000	22.8286322011	1.0000000000	564.2924784848	1.0000000000	0.0000000000	0.0000000000
0.3600000000	0.0000000000	1.0000000000	0.0000000000	1.0000000000	0.0000000000	0.0000000000	29.0644215751	1.0000000000	587.2259323027	1.0000000000	0.0000000000	0.0000000000
0.3700000000	0.0000000000	1.0000000000	0.0000000000	1.0000000000	0.0000000000	0.0000000000	35.7189874347	1.0000000000	612.0878093319	1.0000000000	0.0000000000	0.0000000000
0.3800000000	0.0000000000	1.0000000000	0.0000000000	1.0000000000	0.0000000000	0.0000000000	42.6819520566	1.0000000000	638.0538085580	1.0000000000	0.0000000000	0.0000000000
0.3900000000	0.0000000000	1.0000000000	0.0000000000	1.0000000000	0.0000000000	0.0000000000	50.3423714580	1.0000000000	664.0084684795	1.0000000000	0.0000000000	0.0000000000
0.4000000000	0.0000000000	1.0000000000	0.0000000000	1.0000000000	0.0000000000	0.0000000000	58.9630370995	1.0000000000	689.5567926266	1.0000000000	0.0000000000	0.0000000000
0.4100000000	0.0000000000	1.0000000000	0.0000000000	1.0000000000	0.0000000000	0.0000000000	68.3617708249	1.0000000000	714.5211531418	1.0000000000	0.0000000000	0.0000000000
0.4200000000	0.0000000000	1.0000000000	0.0000000000	1.0000000000	0.0000000000	0.0000000000	78.6410268725	1.0000000000	737.9765706560	1.0000000000	0.0000000000	0.0000000000
0.4300000000	0.0000000000	1.0000000000	0.0000000000	1.0000000000	0.0000000000	0.0000000000	89.7702895870	1.0000000000	758.5298664250	1.0000000000	0.0000000000	0.0000000000
0.4400000000	0.0000000000	1.0000000000	0.0000000000	1.0000000000	0.0000000000	0.0000000000	101.3103869779	1.0000000000	775.0125828468	1.0000000000	0.0000000000	0.0000000000
0.4500000000	0.0000000000	1.0000000000	0.0000000000	1.0000000000	0.0000000000	0.0000000000	113.0245807481	1.0000000000	786.4454665305	1.0000000000	0.0000000000	0.0000000000
0.4600000000	0.0000000000	1.0000000000	0.0000000000	1.0000000000	0.0000000000	0.0000000000	124.7894784216	1.0000000000	791.7569323570	1.0000000000	0.0000000000	0.0000000000
0.4700000000	0.0000000000	1.0000000000	0.0000000000	1.0000000000	0.0000000000	0.0000000000	136.0890915843	1.0000000000	790.0047513318	1.0000000000	0.0000000000	0.0000000000
0.4800000000	0.0000000000	1.0000000000	0.0000000000	1.0000000000	0.0000000000	0.0000000000	146.5222994599	1.0000000000	780.3965720167	1.0000000000	0.0000000000	0.0000000000
0.4900000000	13.4541262721	1.0000000000	20.4008119317	1.0000000000	0.0000000000	0.0000000000	156.0541752693	1.0000000000	761.8878679602	1.0000000000	0.0000000000	0.0000000000
0.5000000000	18.2440682669	1.0000000000	66.3574206246	1.0000000000	0.0000000000	0.0000000000	164.1065039742	1.0000000000	733.4430724347	1.0000000000	0.0000000000	0.0000000000
0.5100000000	18.5634828595	1.0000000000	139.5801404375	1.0000000000	0.0000000000	0.0000000000	169.6966692424	1.0000000000	694.5635493066	1.0000000000	0.0000000000	0.0000000000
0.5200000000	8.1331317108	1.0000000000	239.7256893307	1.0000000000	0.0000000000	0.0000000000	171.8648972042	1.0000000000	645.1611239916	1.0000000000	0.0000000000	0.0000000000
0.5300000000	-16.7304803749	1.0000000000	359.4851932926	1.0000000000	0.0000000000	0.0000000000	169.3309911469	1.0000000000	585.2985170510	1.0000000000	0.0000000000	0.0000000000
0.5400000000	-52.5958376101	1.0000000000	486.1108601843	1.0000000000	0.0000000000	0.0000000000	161.3832043308	1.0000000000	515.9216704693	1.0000000000	0.0000000000	0.0000000000
0.5500000000	-91.0492582276	1.0000000000	604.0942741647	1.0000000000	0.0000000000	0.0000000000	148.3352297411	1.0000000000	439.6401881066	1.0000000000	0.0000000000	0.0000000000
0.5600000000	-125.9613751827	1.0000000000	699.9788954729	1.0000000000	0.0000000000	0.0000000000	130.6300908385	1.0000000000	359.9731613962	1.0000000000	0.0000000000	0.0000000000
0.5700000000	-154.4061285903	1.0000000000	768.3159027896	1.0000000000	0.0000000000	0.0000000000	108.6876691826	1.0000000000	280.8100831632	1.0000000000	0.0000000000	0.0000000000
0.5800000000	-173.9356619700	1.0000000000	812.7317108271	1.0000000000	0.0000000000	0.0000000000	84.9201304297	1.0000000000	206.4776558456	1.0000000000	0.0000000000	0.0000000000
0.5900000000	-183.9804461783	1.0000000000	841.6492392436	1.0000000000	0.0000000000	0.0000000000	62.2333607642	1.0000000000	141.1606415686	1.0000000000	0.0000000000	0.0000000000
0.6000000000	-186.1268647090	1.0000000000	862.5699158465	1.0000000000	0.0000000000	0.0000000000	41.7595855915	1.0000000000	87.5699413365	1.0000000000	0.0000000000	0.0000000000
0.6100000000	-181.9561417070	1.0000000000	878.8747497924	1.0000000000	0.0000000000	0.0000000000	24.9598663557	1.0000000000	46.5413420533	1.0000000000	0.0000000000	0.0000000000
0.6200000000	-172.5450910390	1.0000000000	890.4903829533	1.0000000000	0.0000000000	0.0000000000	13.0820099407	1.0000000000	18.1371766267	1.0000000000	0.0000000000	0.0000000000
